# xmcd
#
# Track frame offsets:
# 150
# 16885
# 39890
# 53849
# 80128
# 94874
# 113650
# 136740
# 156900
# 178085
# 192788
# 213805
# 232700
# 252932
# 271117
# 291750
#
# Disc length: 4177 seconds
#
#
# Revision: 0
# Processed by: cddbd v1.4PL0 Copyright (c) Steve Scherf et al.
# Submitted via: FreeRIP 2.51 
#
DISCID=ca104f10
DTITLE=Kargo - Best Of Kargo
DYEAR=2001
DGENRE=Alternative
TTITLE0=Yüzleþme
TTITLE1=Kalamýþ Parký
TTITLE2=Yanýmda Sen Olmayýnca
TTITLE3=Þairin Elinde
TTITLE4=Renklerin Ýçinde
TTITLE5=Adýmý Çaðýr
TTITLE6=Son Defa
TTITLE7=Lanetlenmiþ Omuzlar
TTITLE8=Boðaziçi
TTITLE9=Farklý Rüyalar
TTITLE10=Arabic Fahiþe
TTITLE11=Yýllar Sonra
TTITLE12=Sen Her Zaman
TTITLE13=Sen Bir Meleksin
TTITLE14=Ruhlarda Hiç Bir Sýzý Yok
TTITLE15=Ayrýlýk Þarkýsý - Remix
EXTD=kargo 4 in 1 best
EXTT0=
EXTT1=
EXTT2=
EXTT3=
EXTT4=
EXTT5=
EXTT6=
EXTT7=
EXTT8=
EXTT9=
EXTT10=
EXTT11=
EXTT12=
EXTT13=
EXTT14=
EXTT15=
PLAYORDER=
